<svg xmlns="http://www.w3.org/2000/svg" xmlns:xlink="http://www.w3.org/1999/xlink"><symbol id="cart"><g fill="currentColor"><path d="M2.606 2H0V0h4.394l.449 4H16v5.938L3.77 12.37 2.605 2ZM15.5 17a1.5 1.5 0 1 1 0-3 1.5 1.5 0 0 1 0 3Zm-10 0a1.5 1.5 0 1 1 0-3 1.5 1.5 0 0 1 0 3Z"/></g></symbol><symbol id="fb"><g fill="currentColor"><path d="m8.719 9 .437-2.875H6.375V4.25c0-.813.375-1.563 1.625-1.563h1.281V.22S8.125 0 7.031 0C4.75 0 3.25 1.406 3.25 3.906v2.219H.687V9H3.25v7h3.125V9h2.344Z"/></g></symbol><symbol id="instagram"><g fill="currentColor"><path d="M8.5 4.607a4.268 4.268 0 0 0-4.268 4.268A4.245 4.245 0 0 0 8.5 13.143a4.268 4.268 0 0 0 4.268-4.268c0-2.338-1.93-4.268-4.268-4.268Zm0 7.051a2.78 2.78 0 0 1-2.783-2.783c0-1.521 1.224-2.746 2.783-2.746a2.74 2.74 0 0 1 2.746 2.746c0 1.559-1.225 2.783-2.746 2.783Zm5.418-7.199a.998.998 0 0 0-1.002-1.002.998.998 0 0 0-1.002 1.002.998.998 0 0 0 1.002 1.002.998.998 0 0 0 1.002-1.002Zm2.82 1.002c-.074-1.336-.37-2.524-1.336-3.488C14.438 1.008 13.25.71 11.914.637 10.541.562 6.422.562 5.05.637c-1.336.074-2.487.37-3.488 1.336C.596 2.937.299 4.125.225 5.46c-.075 1.373-.075 5.492 0 6.865.074 1.336.37 2.486 1.336 3.489 1.002.964 2.152 1.261 3.488 1.335 1.373.075 5.492.075 6.865 0 1.336-.074 2.524-.37 3.488-1.335.965-1.002 1.262-2.153 1.336-3.489.075-1.373.075-5.492 0-6.865Zm-1.781 8.312c-.26.743-.854 1.3-1.559 1.596-1.113.446-3.71.334-4.898.334-1.225 0-3.822.112-4.898-.334a2.813 2.813 0 0 1-1.596-1.596c-.445-1.076-.334-3.673-.334-4.898 0-1.188-.111-3.785.334-4.898a2.862 2.862 0 0 1 1.596-1.559c1.076-.445 3.673-.334 4.898-.334 1.188 0 3.785-.111 4.898.334.706.26 1.262.853 1.559 1.559.445 1.113.334 3.71.334 4.898 0 1.225.111 3.822-.334 4.898Z"/></g></symbol><symbol id="linkedin"><g fill="currentColor"><path d="M3.125 14V4.656H.219V14h2.906ZM1.656 3.406c.938 0 1.688-.781 1.688-1.719 0-.906-.75-1.656-1.688-1.656C.75.031 0 .781 0 1.688c0 .937.75 1.718 1.656 1.718ZM13.97 14H14V8.875c0-2.5-.563-4.438-3.5-4.438-1.406 0-2.344.782-2.75 1.5h-.031v-1.28H4.937V14h2.907V9.375C7.844 8.156 8.062 7 9.562 7s1.532 1.375 1.532 2.469V14h2.875Z"/></g></symbol><symbol id="twitter"><g fill="currentColor"><path d="M14.344 3.75a6.952 6.952 0 0 0 1.625-1.688 6.151 6.151 0 0 1-1.875.5A3.206 3.206 0 0 0 15.53.75a6.93 6.93 0 0 1-2.062.813A3.282 3.282 0 0 0 11.063.53 3.28 3.28 0 0 0 7.78 3.812c0 .25.032.5.094.75a9.52 9.52 0 0 1-6.781-3.437 3.192 3.192 0 0 0-.438 1.656c0 1.125.563 2.125 1.469 2.719-.531-.031-1.063-.156-1.5-.406v.031A3.285 3.285 0 0 0 3.25 8.344c-.25.062-.563.125-.844.125-.219 0-.406-.031-.625-.063a3.265 3.265 0 0 0 3.063 2.281A6.597 6.597 0 0 1 .78 12.095c-.281 0-.531-.031-.781-.063 1.438.938 3.156 1.469 5.031 1.469 6.032 0 9.313-4.969 9.313-9.313V3.75Z"/></g></symbol></svg>