<svg xmlns="http://www.w3.org/2000/svg" version="1.1" xmlns:xlink="http://www.w3.org/1999/xlink" xmlns:svgjs="http://svgjs.com/svgjs" width="1150" height="560" preserveAspectRatio="none"><g mask="url(&quot;#SvgjsMask1041&quot;)" fill="none"><rect width="1150" height="560" x="0" y="0" fill="rgba(21, 67, 96, 1)"></rect><path d="M0,367.132C71.052,371.28,146.966,359.672,202.701,315.408C256.74,272.491,266.962,197.739,293.501,134.038C319.043,72.731,369.144,13.879,355.398,-51.098C341.723,-115.738,270.295,-146.95,224.071,-194.159C181.153,-237.992,148.071,-290.457,93.534,-318.547C31.264,-350.62,-37.999,-376.222,-107.094,-364.73C-179.785,-352.64,-251.607,-314.918,-293.362,-254.2C-333.823,-195.364,-320.236,-118.025,-325.71,-46.83C-330.794,19.297,-349.22,86.641,-324.293,148.1C-298.896,210.716,-244.036,254.777,-188.041,292.597C-131.012,331.115,-68.701,363.121,0,367.132" fill="#0e2c3e"></path><path d="M1150 944.227C1223.559 937.269 1303.725 934.24 1359 885.21 1412.268 837.961 1414.024 758.331 1435.949 690.588 1455.147 631.271 1484.27 574.782 1479.592 512.612 1474.724 447.918 1448.712 386.85699999999997 1409.222 335.38300000000004 1368.102 281.784 1316.061 234.23200000000003 1251.292 215.031 1186.445 195.80700000000002 1115.587 204.04700000000003 1053.0430000000001 229.79399999999998 994.005 254.098 962.58 314.51300000000003 912.733 354.40700000000004 848.492 405.821 738.977 418.318 718.052 497.895 697.637 575.532 785.592 638.169 818.9100000000001 711.204 852.246 784.278 848.264 881.078 913.946 927.306 979.79 973.648 1069.841 951.809 1150 944.227" fill="#1c5a82"></path></g><defs><mask id="SvgjsMask1041"><rect width="1150" height="560" fill="#ffffff"></rect></mask></defs></svg>