<svg xmlns="http://www.w3.org/2000/svg" version="1.1" xmlns:xlink="http://www.w3.org/1999/xlink" xmlns:svgjs="http://svgjs.com/svgjs" width="1150" height="560" preserveAspectRatio="none" viewBox="0 0 1150 560"><g mask="url(&quot;#SvgjsMask1085&quot;)" fill="none"><rect width="1150" height="560" x="0" y="0" fill="rgba(255, 255, 255, 1)"></rect><g mask="url(&quot;#SvgjsMask1087&quot;)"><path d="M238 266L266 238M70 266L98 294L126 294M154 266L182 294L210 294L238 294M-14 294L14 294L42 294L70 266L98 266L126 266L154 266L182 266L210 266L238 266L266 266L294 238L322 238" stroke="url(#SvgjsLinearGradient1086)" stroke-width="4.67"></path><path d="M315 238 a7 7 0 1 0 14 0 a7 7 0 1 0 -14 0zM259 238 a7 7 0 1 0 14 0 a7 7 0 1 0 -14 0zM119 294 a7 7 0 1 0 14 0 a7 7 0 1 0 -14 0zM231 294 a7 7 0 1 0 14 0 a7 7 0 1 0 -14 0z" fill="url(#SvgjsLinearGradient1086)"></path><path d="M-14 266L14 266L42 266L70 238L98 238L126 238L154 238L182 238" stroke="url(#SvgjsLinearGradient1086)" stroke-width="4.67"></path><path d="M175 238 a7 7 0 1 0 14 0 a7 7 0 1 0 -14 0z" fill="url(#SvgjsLinearGradient1086)"></path><path d="M-14 238L14 238L42 238" stroke="url(#SvgjsLinearGradient1086)" stroke-width="4.67"></path><path d="M35 238 a7 7 0 1 0 14 0 a7 7 0 1 0 -14 0z" fill="url(#SvgjsLinearGradient1086)"></path><path d="M98 378L126 350L154 350M14 350L42 350L70 350M-14 350L14 350L42 378L70 378L98 378L126 378L154 378L182 378" stroke="url(#SvgjsLinearGradient1086)" stroke-width="4.67"></path><path d="M175 378 a7 7 0 1 0 14 0 a7 7 0 1 0 -14 0zM147 350 a7 7 0 1 0 14 0 a7 7 0 1 0 -14 0zM63 350 a7 7 0 1 0 14 0 a7 7 0 1 0 -14 0z" fill="url(#SvgjsLinearGradient1086)"></path><path d="M350 210L378 238M126 210L154 182L182 182L210 182L238 182M406 210L434 238L462 238M266 210L294 182L322 182L350 182L378 182M462 210L490 182M-14 210L14 210L42 210L70 210L98 210L126 210L154 210L182 210L210 210L238 210L266 210L294 210L322 210L350 210L378 210L406 210L434 210L462 210L490 210L518 182" stroke="url(#SvgjsLinearGradient1086)" stroke-width="4.67"></path><path d="M511 182 a7 7 0 1 0 14 0 a7 7 0 1 0 -14 0zM371 238 a7 7 0 1 0 14 0 a7 7 0 1 0 -14 0zM231 182 a7 7 0 1 0 14 0 a7 7 0 1 0 -14 0zM455 238 a7 7 0 1 0 14 0 a7 7 0 1 0 -14 0zM371 182 a7 7 0 1 0 14 0 a7 7 0 1 0 -14 0zM483 182 a7 7 0 1 0 14 0 a7 7 0 1 0 -14 0z" fill="url(#SvgjsLinearGradient1086)"></path><path d="M742 406L770 378L798 378L826 378M238 406L266 378L294 378L322 378L350 378M462 434L490 406L518 406L546 406L574 406L602 378M350 434L378 406L406 406L434 406L462 406L490 378L518 378L546 378L574 378L602 350L630 350M686 406L714 378L742 378L770 350L798 350M630 406L658 434L686 434L714 434L742 434L770 434L798 434L826 434M322 434L350 406M-14 378L14 378L42 406L70 406L98 406L126 406L154 406L182 406L210 406L238 406L266 406L294 406L322 434L350 434L378 434L406 434L434 434L462 434L490 434L518 434L546 434L574 434L602 406L630 406L658 406L686 406L714 406L742 406L770 406" stroke="url(#SvgjsLinearGradient1086)" stroke-width="4.67"></path><path d="M763 406 a7 7 0 1 0 14 0 a7 7 0 1 0 -14 0zM819 378 a7 7 0 1 0 14 0 a7 7 0 1 0 -14 0zM343 378 a7 7 0 1 0 14 0 a7 7 0 1 0 -14 0zM595 378 a7 7 0 1 0 14 0 a7 7 0 1 0 -14 0zM623 350 a7 7 0 1 0 14 0 a7 7 0 1 0 -14 0zM791 350 a7 7 0 1 0 14 0 a7 7 0 1 0 -14 0zM819 434 a7 7 0 1 0 14 0 a7 7 0 1 0 -14 0zM343 406 a7 7 0 1 0 14 0 a7 7 0 1 0 -14 0z" fill="url(#SvgjsLinearGradient1086)"></path><path d="M-14 182L14 182L42 182L70 182L98 182" stroke="url(#SvgjsLinearGradient1086)" stroke-width="4.67"></path><path d="M91 182 a7 7 0 1 0 14 0 a7 7 0 1 0 -14 0z" fill="url(#SvgjsLinearGradient1086)"></path><path d="M238 434L266 462L294 462L322 490M42 434L70 462L98 490L126 490L154 490M210 434L238 462L266 490L294 490M126 434L154 462M-14 406L14 406L42 434L70 434L98 434L126 434L154 434L182 434L210 434L238 434L266 434L294 434L322 462L350 462L378 462L406 462" stroke="url(#SvgjsLinearGradient1086)" stroke-width="4.67"></path><path d="M399 462 a7 7 0 1 0 14 0 a7 7 0 1 0 -14 0zM315 490 a7 7 0 1 0 14 0 a7 7 0 1 0 -14 0zM147 490 a7 7 0 1 0 14 0 a7 7 0 1 0 -14 0zM287 490 a7 7 0 1 0 14 0 a7 7 0 1 0 -14 0zM147 462 a7 7 0 1 0 14 0 a7 7 0 1 0 -14 0z" fill="url(#SvgjsLinearGradient1086)"></path><path d="M462 154L490 126L518 126L546 126L574 98M742 126L770 126M406 154L434 126L462 126L490 98L518 98M714 126L742 154L770 154L798 154L826 154M602 126L630 98L658 98L686 98L714 98L742 98M126 154L154 126M350 154L378 126L406 126L434 98M-14 154L14 154L42 154L70 154L98 154L126 154L154 154L182 154L210 154L238 154L266 154L294 154L322 154L350 154L378 154L406 154L434 154L462 154L490 154L518 154L546 154L574 126L602 126L630 126L658 126L686 126L714 126L742 126L770 98L798 98" stroke="url(#SvgjsLinearGradient1086)" stroke-width="4.67"></path><path d="M791 98 a7 7 0 1 0 14 0 a7 7 0 1 0 -14 0zM567 98 a7 7 0 1 0 14 0 a7 7 0 1 0 -14 0zM763 126 a7 7 0 1 0 14 0 a7 7 0 1 0 -14 0zM511 98 a7 7 0 1 0 14 0 a7 7 0 1 0 -14 0zM819 154 a7 7 0 1 0 14 0 a7 7 0 1 0 -14 0zM735 98 a7 7 0 1 0 14 0 a7 7 0 1 0 -14 0zM147 126 a7 7 0 1 0 14 0 a7 7 0 1 0 -14 0zM427 98 a7 7 0 1 0 14 0 a7 7 0 1 0 -14 0z" fill="url(#SvgjsLinearGradient1086)"></path></g></g><defs><mask id="SvgjsMask1085"><rect width="1150" height="560" fill="#ffffff"></rect></mask><linearGradient x1="0" y1="280" x2="885.5" y2="280" gradientUnits="userSpaceOnUse" id="SvgjsLinearGradient1086"><stop stop-color="#3a7cc3" offset="0"></stop><stop stop-color="#dd1133" offset="1"></stop></linearGradient><mask id="SvgjsMask1087"><rect width="1150" height="560" fill="white"></rect><path d="M318.5 238 a3.5 3.5 0 1 0 7 0 a3.5 3.5 0 1 0 -7 0zM262.5 238 a3.5 3.5 0 1 0 7 0 a3.5 3.5 0 1 0 -7 0zM122.5 294 a3.5 3.5 0 1 0 7 0 a3.5 3.5 0 1 0 -7 0zM234.5 294 a3.5 3.5 0 1 0 7 0 a3.5 3.5 0 1 0 -7 0z" fill="black"></path><path d="M178.5 238 a3.5 3.5 0 1 0 7 0 a3.5 3.5 0 1 0 -7 0z" fill="black"></path><path d="M38.5 238 a3.5 3.5 0 1 0 7 0 a3.5 3.5 0 1 0 -7 0z" fill="black"></path><path d="M178.5 378 a3.5 3.5 0 1 0 7 0 a3.5 3.5 0 1 0 -7 0zM150.5 350 a3.5 3.5 0 1 0 7 0 a3.5 3.5 0 1 0 -7 0zM66.5 350 a3.5 3.5 0 1 0 7 0 a3.5 3.5 0 1 0 -7 0z" fill="black"></path><path d="M514.5 182 a3.5 3.5 0 1 0 7 0 a3.5 3.5 0 1 0 -7 0zM374.5 238 a3.5 3.5 0 1 0 7 0 a3.5 3.5 0 1 0 -7 0zM234.5 182 a3.5 3.5 0 1 0 7 0 a3.5 3.5 0 1 0 -7 0zM458.5 238 a3.5 3.5 0 1 0 7 0 a3.5 3.5 0 1 0 -7 0zM374.5 182 a3.5 3.5 0 1 0 7 0 a3.5 3.5 0 1 0 -7 0zM486.5 182 a3.5 3.5 0 1 0 7 0 a3.5 3.5 0 1 0 -7 0z" fill="black"></path><path d="M766.5 406 a3.5 3.5 0 1 0 7 0 a3.5 3.5 0 1 0 -7 0zM822.5 378 a3.5 3.5 0 1 0 7 0 a3.5 3.5 0 1 0 -7 0zM346.5 378 a3.5 3.5 0 1 0 7 0 a3.5 3.5 0 1 0 -7 0zM598.5 378 a3.5 3.5 0 1 0 7 0 a3.5 3.5 0 1 0 -7 0zM626.5 350 a3.5 3.5 0 1 0 7 0 a3.5 3.5 0 1 0 -7 0zM794.5 350 a3.5 3.5 0 1 0 7 0 a3.5 3.5 0 1 0 -7 0zM822.5 434 a3.5 3.5 0 1 0 7 0 a3.5 3.5 0 1 0 -7 0zM346.5 406 a3.5 3.5 0 1 0 7 0 a3.5 3.5 0 1 0 -7 0z" fill="black"></path><path d="M94.5 182 a3.5 3.5 0 1 0 7 0 a3.5 3.5 0 1 0 -7 0z" fill="black"></path><path d="M402.5 462 a3.5 3.5 0 1 0 7 0 a3.5 3.5 0 1 0 -7 0zM318.5 490 a3.5 3.5 0 1 0 7 0 a3.5 3.5 0 1 0 -7 0zM150.5 490 a3.5 3.5 0 1 0 7 0 a3.5 3.5 0 1 0 -7 0zM290.5 490 a3.5 3.5 0 1 0 7 0 a3.5 3.5 0 1 0 -7 0zM150.5 462 a3.5 3.5 0 1 0 7 0 a3.5 3.5 0 1 0 -7 0z" fill="black"></path><path d="M794.5 98 a3.5 3.5 0 1 0 7 0 a3.5 3.5 0 1 0 -7 0zM570.5 98 a3.5 3.5 0 1 0 7 0 a3.5 3.5 0 1 0 -7 0zM766.5 126 a3.5 3.5 0 1 0 7 0 a3.5 3.5 0 1 0 -7 0zM514.5 98 a3.5 3.5 0 1 0 7 0 a3.5 3.5 0 1 0 -7 0zM822.5 154 a3.5 3.5 0 1 0 7 0 a3.5 3.5 0 1 0 -7 0zM738.5 98 a3.5 3.5 0 1 0 7 0 a3.5 3.5 0 1 0 -7 0zM150.5 126 a3.5 3.5 0 1 0 7 0 a3.5 3.5 0 1 0 -7 0zM430.5 98 a3.5 3.5 0 1 0 7 0 a3.5 3.5 0 1 0 -7 0z" fill="black"></path></mask></defs></svg>