<svg width="100" height="100" viewBox="0 0 100 100" fill="none" xmlns="http://www.w3.org/2000/svg">
<path d="M0 0H100V100H0V0Z" fill="white"/>
<path d="M70.0906 53.7212C69.8779 47.8579 69.0272 41.9947 69.0272 36.1314C69.0272 31.3539 69.8779 26.3593 68.1765 21.799C68.1765 21.3646 68.3892 20.7132 68.3892 20.2789C68.8145 17.8901 61.3707 19.1931 60.3073 21.3646C59.6693 22.0161 59.2439 22.6676 59.4566 23.5362C59.4566 23.7534 59.6693 23.9705 59.6693 24.1877C58.1805 31.1368 56.2664 38.0858 54.1396 44.8177C53.2889 47.4236 52.2255 50.0295 51.3748 52.6354C50.0987 50.2467 48.8226 47.858 47.7592 45.2521C44.7817 37.6515 42.2296 30.051 38.614 22.8848C39.0394 19.6274 31.8082 19.8445 30.3195 22.8848C28.618 26.5764 28.8307 30.2681 29.4688 34.3941C30.1068 38.9545 30.3195 43.2976 30.3195 47.858C30.3195 56.5443 31.1702 65.2306 31.1702 73.9169C30.3195 74.7856 30.1068 75.8714 30.9575 76.9572C31.3829 77.3915 31.8082 77.8258 32.2336 78.2601C34.1477 79.7802 39.6774 78.4773 39.6774 75.437C39.6774 66.3164 39.0394 57.4129 38.8267 48.2923C38.8267 47.4236 38.8267 46.555 38.8267 45.6864C39.0394 45.9035 39.0394 46.3378 39.252 46.555C40.5281 50.0295 42.0169 53.5041 43.931 56.7614C45.8451 60.0188 46.6958 63.4933 47.7592 66.9679C47.3339 67.4022 47.1212 68.0537 47.3339 68.488C47.3339 68.9223 47.5466 69.1395 47.9719 69.3566C49.248 70.6596 52.0128 70.0081 53.2889 69.3566C53.9269 69.1395 54.565 68.7051 54.9903 68.488C55.6284 68.0537 56.9045 66.9679 56.4791 65.8821C56.4791 65.6649 56.2664 65.4478 56.2664 65.2306C57.3298 62.4076 57.7552 59.5845 58.3932 56.5443C59.0313 53.5041 60.0947 50.4639 61.1581 47.4236C61.3707 48.7266 61.3707 50.2467 61.5834 51.5496C62.0088 57.1958 61.5834 62.6247 61.5834 68.2708C61.5834 70.2253 61.7961 71.7454 62.0088 73.6998C62.2215 74.3513 62.8595 77.6086 62.6468 77.8258C61.3707 79.1287 61.7961 80.6488 63.4975 80.866C65.4117 81.3003 67.9638 80.6489 69.4526 79.3459C72.0047 76.9572 70.7287 73.0483 70.3033 70.0081C69.0272 64.7963 70.0906 58.933 70.0906 53.7212Z" fill="black"/>
</svg>
