<svg width="80" height="62" viewBox="0 0 80 62" fill="none" xmlns="http://www.w3.org/2000/svg">
<path d="M0.818359 25V0.390625H3.87695V11.1133H7.04102V14.1016H3.87695V25H0.818359ZM8.79883 14.1016V11.1133H11.9277V0.390625H15.0215V25H11.9277V14.1016H8.79883ZM17.7637 19.7969V11.1133C17.7637 10.0117 18.2559 8.93359 19.2402 7.87891C20.459 6.61328 21.9824 5.98047 23.8105 5.98047V8.82812C22.4277 8.82812 21.4668 9.40234 20.9277 10.5508C20.7637 10.9023 20.6816 11.2539 20.6816 11.6055V19.3398C20.6816 20.207 21.0801 20.9453 21.877 21.5547C22.4395 21.9766 23.084 22.1875 23.8105 22.1875V25.0352C21.584 25.0352 19.8613 24.1328 18.6426 22.3281C18.0566 21.4375 17.7637 20.5938 17.7637 19.7969ZM25.3223 25.0352V22.1875C26.5645 22.1875 27.4551 21.625 27.9941 20.5C28.1816 20.125 28.2754 19.7617 28.2754 19.4102V11.6055C28.2754 10.6445 27.8652 9.88281 27.0449 9.32031C26.5293 8.99219 25.9434 8.82812 25.2871 8.82812V5.98047C27.4434 5.98047 29.1074 6.85938 30.2793 8.61719C30.8652 9.48438 31.1582 10.3164 31.1582 11.1133V19.7969C31.1582 20.9453 30.666 22.0586 29.6816 23.1367C28.5332 24.3789 27.0801 25.0117 25.3223 25.0352ZM33.8301 19.9375V6.01562H36.8184V19.5859C36.8184 20.4297 37.2402 21.1328 38.084 21.6953C38.6465 22.0469 39.2676 22.2227 39.9473 22.2227V25.1758C37.6973 25.1758 35.9629 24.2969 34.7441 22.5391C34.1348 21.6484 33.8301 20.7812 33.8301 19.9375ZM41.4941 25.1758V22.2227C42.7598 22.2227 43.6855 21.7188 44.2715 20.7109C44.4824 20.3359 44.5879 19.9609 44.5879 19.5859V6.01562H47.5762V19.9375C47.5762 21.0391 47.0723 22.1289 46.0645 23.207C44.8457 24.4961 43.3223 25.1523 41.4941 25.1758ZM49.6152 20.0078L52.3926 19.4805C52.3926 20.5352 52.9434 21.3672 54.0449 21.9766C54.584 22.2344 55.0996 22.375 55.5918 22.3984V25.1758C53.3184 25.1758 51.6191 24.3555 50.4941 22.7148C49.9082 21.8477 49.6152 20.9453 49.6152 20.0078ZM49.791 11.3594C49.791 9.22656 50.7637 7.64453 52.709 6.61328C53.6465 6.12109 54.584 5.875 55.5215 5.875V8.61719C54.4434 8.61719 53.6113 9.0625 53.0254 9.95312C52.7207 10.3984 52.5684 10.8672 52.5684 11.3594C52.5684 12.1094 53.1543 12.7188 54.3262 13.1875C55.2168 13.5625 56.9395 14.0547 59.4941 14.6641C61.0879 14.9922 62.2246 15.7773 62.9043 17.0195C63.2559 17.6758 63.4316 18.4141 63.4316 19.2344C63.4316 21.4844 62.5293 23.1484 60.7246 24.2266C59.6699 24.8594 58.4629 25.1758 57.1035 25.1758V22.3984C58.1816 22.3984 59.084 22.0234 59.8105 21.2734C60.3262 20.7344 60.584 20.1016 60.584 19.375C60.584 18.4375 59.6582 17.6875 57.8066 17.125C57.3379 16.9844 56.5879 16.7852 55.5566 16.5273C54.4551 16.2695 53.6582 16.0586 53.166 15.8945C51.3848 15.1914 50.3066 14.125 49.9316 12.6953C49.8379 12.2734 49.791 11.8281 49.791 11.3594ZM57.0684 8.65234V5.875C59.084 5.875 60.7129 6.625 61.9551 8.125C62.7285 9.08594 63.1152 10.0938 63.1152 11.1484L60.3379 11.6055C60.3379 10.3164 59.6348 9.41406 58.2285 8.89844C57.8066 8.73438 57.4199 8.65234 57.0684 8.65234ZM65.5059 19.7969V11.0781C65.5293 10 66.0449 8.93359 67.0527 7.87891C68.2715 6.63672 69.748 6.00391 71.4824 5.98047V8.75781C70.3574 8.75781 69.4785 9.25 68.8457 10.2344C68.5879 10.6562 68.459 11.043 68.459 11.3945V13.7852H76.334V11.3945C76.334 10.3398 75.7949 9.56641 74.7168 9.07422C74.2246 8.83984 73.7207 8.72266 73.2051 8.72266V5.98047C74.8223 5.98047 76.2637 6.55469 77.5293 7.70312C78.584 8.71094 79.123 9.82422 79.1465 11.043V16.6328H68.459V19.7969C68.459 20.4531 68.834 21.0625 69.584 21.625C70.1934 22.0469 70.8379 22.2578 71.5176 22.2578V25C69.3848 25 67.709 24.1328 66.4902 22.3984C65.834 21.4844 65.5059 20.6172 65.5059 19.7969ZM73.2051 25V22.2227C74.6113 22.2227 75.666 21.6133 76.3691 20.3945C76.5098 20.1367 76.6152 19.8906 76.6855 19.6562L79.1816 20.5703C78.7598 22.1875 77.7988 23.4062 76.2988 24.2266C75.3379 24.7422 74.3066 25 73.2051 25ZM14.2656 36.3906H17.3594L23.6172 57.7656L22.4922 61H21.4023L14.2656 36.3906ZM22.8438 49.4336L27.2031 36.3906H30.2969C30.0859 37.0703 29.207 39.7891 27.6602 44.5469C25.8555 50.0781 24.8242 53.2539 24.5664 54.0742H24.2148L22.8438 49.4336ZM31.9844 54.1445V42.5781C31.9844 41.3359 32.5117 40.0703 33.5664 38.7812C34.9727 37.0938 36.7539 36.2383 38.9102 36.2148V39.2734C37.4805 39.2734 36.3672 40 35.5703 41.4531C35.2422 42.0859 35.0781 42.6484 35.0781 43.1406V54.1445C35.0781 55.6211 35.8047 56.7695 37.2578 57.5898C37.8672 57.9414 38.4062 58.1172 38.875 58.1172V61.1758C37.5391 61.1758 36.2031 60.6953 34.8672 59.7344C32.9688 58.3281 32.0078 56.4648 31.9844 54.1445ZM40.8086 61.1758V58.1172C41.6289 58.1172 42.4609 57.7539 43.3047 57.0273C44.1953 56.2305 44.6523 55.2695 44.6758 54.1445V43.1406C44.6758 42.2266 44.3008 41.3477 43.5508 40.5039C42.7773 39.707 41.8633 39.2969 40.8086 39.2734V36.2148C43.1758 36.2148 45.0742 37.2344 46.5039 39.2734C47.3242 40.4453 47.7344 41.5469 47.7344 42.5781V54.1445C47.7344 56.7461 46.5742 58.7383 44.2539 60.1211C43.0352 60.8242 41.8867 61.1758 40.8086 61.1758ZM50.582 61H53.6406V36.3906H50.582V61ZM55.3984 49.9961H59.1953C62.2656 49.9727 64.1875 48.8008 64.9609 46.4805C65.2656 45.543 65.418 44.4297 65.418 43.1406C65.418 38.8516 63.4844 36.6016 59.6172 36.3906C59.4766 36.3906 59.3359 36.3906 59.1953 36.3906H55.3984V39.3438H58.7031C61.0703 39.3906 62.2656 40.6562 62.2891 43.1406C62.2422 45.6953 61.0586 46.9844 58.7383 47.0078H55.3984V49.9961Z" fill="white"/>
</svg>
