<svg width="38" height="38" viewBox="0 0 38 38" fill="none" xmlns="http://www.w3.org/2000/svg">
<path d="M0 0H38V38H0V0Z" fill="#FFCA42"/>
<path d="M10.4908 27.4H31V5H10.4342C8.54019 5.00642 7.00623 6.58725 7 8.53908V29.1646C7 29.1733 7 29.1821 7 29.1908C7 31.2558 8.57245 33 10.4342 33H31V31.1333H10.4342C9.58509 31.1333 8.81132 30.2076 8.81132 29.1908C8.81132 28.2202 9.58057 27.4 10.4908 27.4ZM12.434 6.88592H17.8679V16.9671L15.1283 14.4885L12.434 16.9525V6.88592ZM8.81132 8.55367C8.80849 7.62617 9.53416 6.87192 10.4342 6.86667H10.6226V19.4667H12.4136L15.1351 16.9782L17.8849 19.4667H19.6792V6.86667H29.1886V25.5333H10.4908C9.90151 25.5333 9.32301 25.692 8.81188 25.993L8.81132 8.55367Z" fill="#1B3764"/>
</svg>
